<?xml version="1.0" standalone="no"?>
<!DOCTYPE svg PUBLIC "-//W3C//DTD SVG 20010904//EN"
 "http://www.w3.org/TR/2001/REC-SVG-20010904/DTD/svg10.dtd">
<svg version="1.0" xmlns="http://www.w3.org/2000/svg"
 width="640.000000pt" height="1280.000000pt" viewBox="0 0 640.000000 1280.000000"
 preserveAspectRatio="xMidYMid meet">
<metadata>
Created by potrace 1.15, written by Peter Selinger 2001-2017
</metadata>
<g transform="translate(0.000000,1280.000000) scale(0.100000,-0.100000)"
fill="#5E0717" stroke="none">
<path d="M2735 12793 c-959 -27 -1727 -155 -1837 -304 -21 -28 -52 -200 -87
-479 -119 -956 -80 -1979 110 -2880 147 -700 393 -1352 691 -1833 26 -43 48
-85 48 -93 0 -8 17 -33 38 -57 21 -23 56 -67 78 -97 74 -105 232 -286 324
-373 260 -248 519 -396 805 -461 l100 -23 3 -2440 2 -2439 -157 -86 c-442
-239 -876 -415 -1283 -522 -74 -20 -257 -60 -405 -89 -340 -68 -385 -89 -385
-179 0 -197 617 -351 1685 -420 264 -17 1216 -17 1465 0 540 37 847 75 1165
144 379 82 556 189 515 313 -21 64 -73 83 -395 145 -600 114 -1059 281 -1672
608 l-163 87 3 2440 2 2440 25 3 c54 7 191 43 256 68 335 126 637 370 925 746
50 65 99 122 109 128 22 12 42 45 46 75 1 11 39 83 85 160 77 132 279 531 279
552 0 6 14 43 31 84 121 292 254 737 334 1119 170 810 219 1728 139 2605 -26
287 -82 679 -105 737 -75 187 -1134 333 -2359 326 -179 -1 -365 -3 -415 -5z
m1165 -68 c326 -17 503 -31 660 -50 124 -15 85 -13 -220 10 -616 47 -1679 49
-2210 5 -119 -10 -216 -13 -209 -6 5 5 418 35 624 45 282 14 1060 12 1355 -4z
m270 -59 c397 -27 577 -45 780 -77 268 -43 459 -105 468 -152 10 -50 -213
-120 -533 -166 -650 -94 -1838 -120 -2755 -61 -706 46 -1199 148 -1144 238 65
105 769 208 1614 236 263 9 1360 -4 1570 -18z m-2277 7 c-13 -2 -35 -2 -50 0
-16 2 -5 4 22 4 28 0 40 -2 28 -4z m-100 -10 c-13 -2 -33 -2 -45 0 -13 2 -3 4
22 4 25 0 35 -2 23 -4z m-85 -10 c-10 -2 -28 -2 -40 0 -13 2 -5 4 17 4 22 1
32 -1 23 -4z m3030 0 c-10 -2 -28 -2 -40 0 -13 2 -5 4 17 4 22 1 32 -1 23 -4z
m-3115 -10 c-7 -2 -21 -2 -30 0 -10 3 -4 5 12 5 17 0 24 -2 18 -5z m3190 0
c-7 -2 -21 -2 -30 0 -10 3 -4 5 12 5 17 0 24 -2 18 -5z m-3270 -10 c-7 -2 -19
-2 -25 0 -7 3 -2 5 12 5 14 0 19 -2 13 -5z m3334 1 c-3 -3 -12 -4 -19 -1 -8 3
-5 6 6 6 11 1 17 -2 13 -5z m-3390 -10 c-3 -3 -12 -4 -19 -1 -8 3 -5 6 6 6 11
1 17 -2 13 -5z m3450 0 c-3 -3 -12 -4 -19 -1 -8 3 -5 6 6 6 11 1 17 -2 13 -5z
m-3981 -165 c-76 -110 322 -216 1009 -269 797 -61 1647 -61 2475 1 299 22 564
59 755 107 61 14 118 26 128 24 10 -1 16 2 13 7 -3 4 12 16 34 26 21 10 49 28
62 42 20 21 21 27 10 55 -10 29 -10 30 3 17 8 -8 16 -32 18 -54 2 -38 0 -40
-48 -67 -72 -40 -198 -79 -237 -73 -27 4 -29 4 -13 -5 15 -8 10 -9 -25 -5 -32
4 -39 2 -25 -4 11 -5 17 -10 14 -10 -4 -1 -31 -6 -60 -12 -30 -7 -92 -13 -139
-14 -47 -1 -146 -9 -220 -18 -133 -16 -259 -27 -555 -47 -742 -50 -1937 -24
-2552 56 -62 8 -130 12 -150 9 -21 -3 -51 -1 -68 4 -25 8 -21 9 25 6 52 -4 53
-4 15 5 -22 5 -60 7 -85 5 -37 -4 -40 -3 -20 5 22 8 20 9 -13 5 -66 -7 -257
50 -344 104 -36 22 -41 29 -36 51 6 27 30 70 39 70 3 0 -2 -10 -10 -21z m629
-253 c50 -8 137 -19 195 -26 145 -16 151 -17 102 -19 -24 0 -73 3 -110 8 -238
34 -302 44 -302 47 0 6 21 5 115 -10z m3320 4 c-16 -4 -46 -8 -65 -7 l-35 0
40 7 c22 4 51 7 65 7 22 1 22 0 -5 -7z m-106 -14 c-8 -8 -277 -38 -300 -33
-16 3 -11 5 16 6 22 1 83 8 135 15 98 14 156 19 149 12z m-2650 -52 c8 -7
-123 -2 -174 6 -33 5 -12 6 60 3 61 -3 112 -7 114 -9z m2304 9 c-13 -2 -33 -2
-45 0 -13 2 -3 4 22 4 25 0 35 -2 23 -4z m-153 -14 c-47 -4 -150 -10 -230 -13
l-145 -5 145 9 c80 5 152 11 160 14 8 2 47 4 85 3 l70 0 -85 -8z m-2062 -6
c-16 -2 -40 -2 -55 0 -16 2 -3 4 27 4 30 0 43 -2 28 -4z m185 -10 c-29 -2 -77
-2 -105 0 -29 2 -6 3 52 3 58 0 81 -1 53 -3z m205 -10 c-26 -2 -71 -2 -100 0
-29 2 -8 3 47 3 55 0 79 -1 53 -3z m1250 0 c-26 -2 -71 -2 -100 0 -29 2 -8 3
47 3 55 0 79 -1 53 -3z m-416 -10 c-144 -2 -380 -2 -525 0 -144 1 -26 2 263 2
289 0 407 -1 262 -2z"/>
<path d="M2625 12674 c-343 -12 -796 -45 -1022 -75 -360 -46 -621 -117 -611
-166 8 -40 181 -96 428 -137 620 -105 1891 -138 2835 -76 601 40 1040 115
1132 194 l26 22 -28 22 c-71 56 -358 118 -720 156 -432 45 -685 57 -1340 60
-335 2 -650 2 -700 0z"/>
<path d="M935 12399 c-7 -10 74 -63 83 -55 3 3 1 6 -5 6 -6 0 -25 13 -42 29
-17 16 -33 25 -36 20z"/>
<path d="M5450 12400 c0 -5 -24 -23 -52 -40 -65 -37 -54 -40 13 -3 27 14 49
32 49 40 0 7 -2 13 -5 13 -3 0 -5 -4 -5 -10z"/>
<path d="M5238 12293 c7 -3 16 -2 19 1 4 3 -2 6 -13 5 -11 0 -14 -3 -6 -6z"/>
<path d="M5198 12283 c7 -3 16 -2 19 1 4 3 -2 6 -13 5 -11 0 -14 -3 -6 -6z"/>
<path d="M1218 12273 c7 -3 16 -2 19 1 4 3 -2 6 -13 5 -11 0 -14 -3 -6 -6z"/>
<path d="M1268 12263 c7 -3 16 -2 19 1 4 3 -2 6 -13 5 -11 0 -14 -3 -6 -6z"/>
<path d="M5068 12253 c6 -2 18 -2 25 0 6 3 1 5 -13 5 -14 0 -19 -2 -12 -5z"/>
<path d="M4970 12240 c-34 -7 -34 -7 -5 -8 17 0 41 4 55 8 33 11 0 11 -50 0z"/>
</g>
</svg>
