<svg xmlns="http://www.w3.org/2000/svg" viewBox="0 0 1440 320"><path fill="#56070c" fill-opacity="1" d="M0,160L21.8,138.7C43.6,117,87,75,131,80C174.5,85,218,139,262,186.7C305.5,235,349,277,393,256C436.4,235,480,149,524,117.3C567.3,85,611,107,655,133.3C698.2,160,742,192,785,202.7C829.1,213,873,203,916,208C960,213,1004,235,1047,250.7C1090.9,267,1135,277,1178,277.3C1221.8,277,1265,267,1309,224C1352.7,181,1396,107,1418,69.3L1440,32L1440,320L1418.2,320C1396.4,320,1353,320,1309,320C1265.5,320,1222,320,1178,320C1134.5,320,1091,320,1047,320C1003.6,320,960,320,916,320C872.7,320,829,320,785,320C741.8,320,698,320,655,320C610.9,320,567,320,524,320C480,320,436,320,393,320C349.1,320,305,320,262,320C218.2,320,175,320,131,320C87.3,320,44,320,22,320L0,320Z"></path></svg>